<svg width="23" height="24" viewBox="0 0 23 24" fill="none" xmlns="http://www.w3.org/2000/svg">
<g clip-path="url(#clip0_1860_41)">
<path d="M8.78139 6.40819C9.15231 5.3479 9.33777 4.81776 9.50394 4.56744C10.4517 3.13973 12.5483 3.13973 13.4961 4.56744C13.6622 4.81776 13.8566 5.37331 14.2453 6.48441V6.48441C14.3265 6.71665 14.3671 6.83277 14.4109 6.92944C14.7674 7.71704 15.5206 8.25149 16.3817 8.32793C16.4874 8.33731 16.6041 8.33731 16.8374 8.33731H17.0717C17.7444 8.33731 18.0808 8.33731 18.2488 8.36123C20.2307 8.6434 21.013 11.0875 19.5634 12.4681C19.4405 12.5851 19.1667 12.7804 18.619 13.1711V13.1711C18.4625 13.2827 18.3843 13.3385 18.3177 13.3937C17.5947 13.9925 17.2881 14.9584 17.5334 15.8646C17.556 15.9482 17.5888 16.0418 17.6543 16.2292V16.2292C17.9305 17.0188 18.0687 17.4137 18.1025 17.6202C18.4105 19.5018 16.504 20.9719 14.7625 20.1955C14.5714 20.1103 14.2356 19.8836 13.5639 19.4304L13.1251 19.1343C12.8515 18.9496 12.7146 18.8573 12.5795 18.7891C11.9006 18.4465 11.0994 18.4465 10.4205 18.7891C10.2854 18.8573 10.1485 18.9496 9.8749 19.1343L9.45553 19.4173C8.76818 19.8811 8.42451 20.113 8.22858 20.1994C6.49202 20.9652 4.59691 19.5039 4.89598 17.6297C4.92972 17.4183 5.07094 17.0146 5.35339 16.2072V16.2072C5.41974 16.0175 5.45291 15.9227 5.47578 15.8378C5.7164 14.9448 5.42147 13.993 4.71805 13.3924C4.6512 13.3354 4.57274 13.2778 4.41583 13.1626V13.1626C3.87033 12.7621 3.59758 12.5618 3.47411 12.4402C2.06333 11.0509 2.85101 8.64716 4.8104 8.36224C4.98188 8.33731 5.32025 8.33731 5.99699 8.33731H6.17039C6.39624 8.33731 6.50917 8.33731 6.61151 8.32852C7.47771 8.25411 8.23563 7.71629 8.59189 6.92325C8.63398 6.82955 8.67127 6.72296 8.74585 6.50977L8.78139 6.40819Z" stroke="black" stroke-width="1.4375" stroke-linejoin="round"/>
</g>
<defs>
<clipPath id="clip0_1860_41">
<rect width="23" height="23" fill="white" transform="translate(0 0.55365)"/>
</clipPath>
</defs>
</svg>
